<svg xmlns="http://www.w3.org/2000/svg" width="256" height="256" viewBox="0 0 256 256" role="img" aria-label="Logo NexUS">
  <defs>
    <linearGradient id="g" x1="0" x2="1" y1="0" y2="1">
      <stop offset="0%" stop-color="#0E5CF0"/>
      <stop offset="100%" stop-color="#0B4DD0"/>
    </linearGradient>
    <filter id="s" x="-20%" y="-20%" width="140%" height="140%">
      <feDropShadow dx="0" dy="8" stdDeviation="12" flood-color="#0E5CF0" flood-opacity="0.25"/>
    </filter>
  </defs>
  <rect x="16" y="16" width="224" height="224" rx="36" fill="url(#g)"/>
  <!-- Stylized N and U/S linking to form the idea of a Nexus -->
  <g filter="url(#s)">
    <path d="M64 176V88a8 8 0 0 1 8-8h8a8 8 0 0 1 6.3 3.1l67.4 86.8V88a8 8 0 0 1 8-8h16a8 8 0 0 1 8 8v88a8 8 0 0 1-8 8h-8a8 8 0 0 1-6.3-3.1L96 94.1V176a8 8 0 0 1-8 8H72a8 8 0 0 1-8-8z" fill="#fff" opacity="0.98"/>
    <path d="M128 176c0 13.3 10.7 24 24 24h24c22.1 0 40-17.9 40-40 0-8.8-7.2-16-16-16h-16c-8.8 0-16 7.2-16 16h16c4.4 0 8 3.6 8 8s-7.2 16-16 16h-24c-4.4 0-8-3.6-8-8z" fill="#e7f0ff"/>
  </g>
</svg>


